<svg id="Layer_1" data-name="Layer 1" xmlns="http://www.w3.org/2000/svg" xmlns:xlink="http://www.w3.org/1999/xlink" viewBox="0 0 1312.07 225"><defs><style>.cls-1{fill:url(#linear-gradient);}.cls-2{fill:#111313;}</style><linearGradient id="linear-gradient" y1="112.5" x2="289.29" y2="112.5" gradientUnits="userSpaceOnUse"><stop offset="0" stop-color="#00c8ff"/><stop offset="1" stop-color="#0058ff"/></linearGradient></defs><title>SVG 1</title><path class="cls-1" d="M251.79,0H123.22A37.56,37.56,0,0,0,85.71,37.51V64.29H37.51A37.54,37.54,0,0,0,0,101.79v85.72A37.55,37.55,0,0,0,37.51,225H166.08a37.54,37.54,0,0,0,37.49-37.49v-26.8h48.22a37.53,37.53,0,0,0,37.5-37.49V37.51A37.54,37.54,0,0,0,251.79,0Zm5.35,123.22a5.36,5.36,0,0,1-5.35,5.35H86.09a37.57,37.57,0,0,0,37.13,32.14h48.21v26.8a5.36,5.36,0,0,1-5.35,5.35H37.51a5.36,5.36,0,0,1-5.37-5.35V101.79a5.36,5.36,0,0,1,5.37-5.36H203.19a37.53,37.53,0,0,0-37.11-32.14H117.86V37.51a5.36,5.36,0,0,1,5.36-5.37H251.79a5.36,5.36,0,0,1,5.35,5.37Z"/><path class="cls-2" d="M467.79,85.5c0-28.07-21.22-48-52.5-48H353.57v150h27.64V133.29h24.43l34.5,54.21h31.72l-37.72-57.86C454.93,123.64,467.79,107.36,467.79,85.5ZM414,108.64H381.21V62.14H414c16.93,0,25.93,9.22,25.93,23.36S430.93,108.64,414,108.64Z"/><path class="cls-2" d="M537.86,72.21c-33.22,0-58.93,24-58.93,59.36,0,34.5,24.21,57.64,58.71,57.64,26.79,0,47.79-13.92,54-37.07H566.36c-4.5,9.43-15,15.22-28.07,15.22-17.58,0-31.29-10.29-33.65-30.65h88.07c.22-2.78.43-5.78.43-9C593.14,93.86,569.14,72.21,537.86,72.21Zm-31.93,45.86c4.28-15.64,16.5-24.21,31.93-24.21,15.21,0,26.35,7.93,29.14,24.21Z"/><path class="cls-2" d="M745.5,72.21c-16.07,0-31.29,7.93-38.79,21.43-6.21-13.93-18.64-21.43-34.28-21.43-14.36,0-27.43,6.43-35.14,17.79V73.93H611.57V187.5h26.14V126.86c0-20.15,11.36-30.86,25.72-30.86,12.86,0,21.43,8.79,21.43,27.64V187.5H711V126.86C711,106.71,722.36,96,736.71,96c12.86,0,21.43,8.79,21.43,27.64V187.5h26.15V116.14C784.29,88.07,768.21,72.21,745.5,72.21Z"/><path class="cls-2" d="M877.07,101.57,856.5,97.71c-19.72-3.42-25.93-9.21-25.93-18.42,0-11.58,10.07-19.72,27.86-19.72,18,0,28.71,8.36,30.64,22.72h27.21c-1.28-28.08-23.78-46.5-57.21-46.5-33.86,0-55.93,19.07-55.93,45.21,0,20.57,13.71,34.07,40.07,38.79l20.57,3.85c20.15,3.86,27,10.29,27,20.36,0,12-9.43,21.21-28.5,21.21-19.28,0-32.14-9.64-33.43-25.92H801.43c.64,30,23.78,49.92,59.35,49.92s57.65-19.71,57.65-46.92C918.43,120.86,904.71,106.71,877.07,101.57Z"/><path class="cls-2" d="M1012.07,134.57c0,20.14-12.22,30.64-27.86,30.64-14.14,0-23.14-8.35-23.14-26.78V73.93H934.92V145.5c0,27.64,16.5,43.71,40.29,43.71,15.43,0,29.14-6.64,37.07-18.21v16.5h25.93V73.93h-26.14Z"/><path class="cls-2" d="M1125.64,72.21c-16.08,0-29.8,6.86-37.08,18V73.93h-25.72V225H1089V171.85c7.5,10.71,21,17.36,36.65,17.36,29.14,0,52.71-23.57,52.71-58.5S1154.78,72.21,1125.64,72.21Zm-5.57,93.86c-18.43,0-31.72-13.94-31.72-35.36s13.29-35.35,31.72-35.35,31.71,13.92,31.71,35.35S1138.49,166.07,1120.07,166.07Z"/><path class="cls-2" d="M1259.35,72.21c-16.08,0-29.79,6.86-37.08,18V73.93h-25.71V225h26.14V171.85c7.51,10.71,21,17.36,36.65,17.36,29.14,0,52.72-23.57,52.72-58.5S1288.49,72.21,1259.35,72.21Zm-5.57,93.86c-18.43,0-31.71-13.94-31.71-35.36s13.28-35.35,31.71-35.35,31.71,13.92,31.71,35.35S1272.21,166.07,1253.78,166.07Z"/></svg>